<?xml version="1.0" encoding="UTF-8" standalone="no"?>
<svg
   version="1.1"
   viewBox="0 0 180 180.00001"
   width="180"
   height="180"
   id="svg4"
   sodipodi:docname="Flag.svg"
   inkscape:version="1.4.2 (ebf0e940d0, 2025-05-08)"
   xmlns:inkscape="http://www.inkscape.org/namespaces/inkscape"
   xmlns:sodipodi="http://sodipodi.sourceforge.net/DTD/sodipodi-0.dtd"
   xmlns="http://www.w3.org/2000/svg"
   xmlns:svg="http://www.w3.org/2000/svg">
  <sodipodi:namedview
     id="namedview4"
     pagecolor="#ffffff"
     bordercolor="#000000"
     borderopacity="0.25"
     inkscape:showpageshadow="2"
     inkscape:pageopacity="0.0"
     inkscape:pagecheckerboard="0"
     inkscape:deskcolor="#d1d1d1"
     inkscape:zoom="2.9653427"
     inkscape:cx="72.504266"
     inkscape:cy="104.70965"
     inkscape:window-width="1078"
     inkscape:window-height="812"
     inkscape:window-x="0"
     inkscape:window-y="0"
     inkscape:window-maximized="1"
     inkscape:current-layer="svg4" />
  <!-- svg-source:excalidraw -->
  <metadata
     id="metadata1" />
  <defs
     id="defs1">
    <style
       class="style-fonts"
       id="style1" />
  </defs>
  <mask
     id="mask3" />
  <g
     id="g5"
     transform="translate(59.944699,22.215)">
    <g
       stroke-linecap="round"
       id="g3">
      <g
         transform="translate(11.869908,10.10905)"
         fill-rule="evenodd"
         id="g2">
        <path
           d="M 0,0 C 6.37,2.85 38.03,11.5 38.24,17.07 38.46,22.64 7.65,36.28 1.28,33.43 -5.09,30.59 0.21,5.57 0,0"
           stroke="none"
           stroke-width="0"
           fill="#ffc9c9"
           fill-rule="evenodd"
           id="path1" />
        <path
           d="M 0,0 C 6.37,2.85 38.03,11.5 38.24,17.07 38.46,22.64 7.65,36.28 1.28,33.43 -5.09,30.59 0.21,5.57 0,0 M 0,0 C 6.37,2.85 38.03,11.5 38.24,17.07 38.46,22.64 7.65,36.28 1.28,33.43 -5.09,30.59 0.21,5.57 0,0"
           stroke="#1e1e1e"
           stroke-width="2"
           fill="none"
           id="path2" />
      </g>
    </g>
    <g
       stroke-linecap="round"
       transform="translate(10.0443,10)"
       id="g4">
      <path
         d="m 0.41,0 c 0.23,0 0.47,0 0.81,0 0.27,0 0.41,0.14 0.41,0.41 0,28.71 0,57.43 0,114.75 0,0.27 -0.14,0.41 -0.41,0.41 -0.19,0 -0.38,0 -0.81,0 C 0.14,115.57 0,115.43 0,115.16 0,74.79 0,34.43 0,0.41 0,0.14 0.14,0 0.41,0"
         stroke="none"
         stroke-width="0"
         fill="#a5d8ff"
         id="path3" />
      <path
         d="M 0.41,0 C 0.63,0 0.86,0 1.22,0 M 0.41,0 c 0.3,0 0.6,0 0.81,0 m 0,0 C 1.49,0 1.63,0.14 1.63,0.41 M 1.22,0 c 0.27,0 0.41,0.14 0.41,0.41 m 0,0 c 0,35.96 0,71.92 0,114.75 m 0,-114.75 c 0,28.97 0,57.93 0,114.75 m 0,0 c 0,0.27 -0.14,0.41 -0.41,0.41 m 0.41,-0.41 c 0,0.27 -0.14,0.41 -0.41,0.41 m 0,0 c -0.29,0 -0.58,0 -0.81,0 m 0.81,0 c -0.32,0 -0.64,0 -0.81,0 m 0,0 C 0.14,115.57 0,115.43 0,115.16 m 0.41,0.41 C 0.14,115.57 0,115.43 0,115.16 m 0,0 C 0,87.27 0,59.38 0,0.41 M 0,115.16 C 0,86.24 0,57.31 0,0.41 m 0,0 C 0,0.14 0.14,0 0.41,0 M 0,0.41 C 0,0.14 0.14,0 0.41,0"
         stroke="#1e1e1e"
         stroke-width="2"
         fill="none"
         id="path4" />
    </g>
  </g>
</svg>
