<?xml version="1.0" encoding="UTF-8" standalone="no"?>
<svg
   version="1.1"
   viewBox="0 0 67 422"
   width="67"
   height="422"
   id="svg2"
   sodipodi:docname="Tentacle.svg"
   inkscape:version="1.4.2 (ebf0e940d0, 2025-05-08)"
   xmlns:inkscape="http://www.inkscape.org/namespaces/inkscape"
   xmlns:sodipodi="http://sodipodi.sourceforge.net/DTD/sodipodi-0.dtd"
   xmlns="http://www.w3.org/2000/svg"
   xmlns:svg="http://www.w3.org/2000/svg">
  <sodipodi:namedview
     id="namedview2"
     pagecolor="#ffffff"
     bordercolor="#000000"
     borderopacity="0.25"
     inkscape:showpageshadow="2"
     inkscape:pageopacity="0.0"
     inkscape:pagecheckerboard="0"
     inkscape:deskcolor="#d1d1d1"
     inkscape:zoom="1.4142136"
     inkscape:cx="-178.89802"
     inkscape:cy="252.79067"
     inkscape:window-width="1900"
     inkscape:window-height="996"
     inkscape:window-x="0"
     inkscape:window-y="0"
     inkscape:window-maximized="1"
     inkscape:current-layer="svg2" />
  <!-- svg-source:excalidraw -->
  <metadata
     id="metadata1" />
  <defs
     id="defs1">
    <style
       class="style-fonts"
       id="style1" />
  </defs>
  <g
     stroke-linecap="round"
     transform="translate(10 10) rotate(0 23.5 201)"
     id="g2">
    <path
       d="m 18.732679,-7.5130096 c 7.11,0.86 3.818564,3.2983884 13.158564,0.088388 4.57,-2.39 5.721204,8.13421355 5.651204,13.1642135 2.19,135.6299977 19.620893,284.2192377 17.500893,393.3492377 -0.43,7.86 -3.9,13.56 -11.75,11.75 -3.5,-3.67 -25.383126,-1.62161 -39.2331263,0.0884 -8.86,-3.05 -11.62,-3.07 -11.75,-11.75 0.31,-81.31001 15.318291,-174.41537 15.998291,-392.4653658 -0.86,-10 -0.015825,-14.4948738 10.4241743,-14.2248738"
       stroke="none"
       stroke-width="0"
       fill="#9c36b5"
       id="path1"
       sodipodi:nodetypes="ccccccccc" />
    <path
       d="m 14.831981,-7.4246213 c 9.88,-1.45 10.784097,-0.238388 16.694097,-0.088388 m -16.694097,0.088388 c 7.95,0.75 9.224097,0.7416117 16.694097,-0.088388 m 0,0 c 7.36,1.28 5.938311,4.6761554 6.358311,13.6061554 M 31.526078,-7.5130096 c 7.08,-0.11 8.628311,3.9361554 6.358311,13.6061554 m 0,0 C 37.634389,126.50314 54.61,258.135 55.5,398.875 M 37.884389,6.0931458 C 36.914389,115.74314 54.84,239.065 55.5,398.875 m 0,0 c 1.32,6.5 -2.1,12.99 -11.75,11.75 m 11.75,-11.75 c 1.52,7.09 -6.04,10.69 -11.75,11.75 m 0,0 c -5.52,0.41 -29.925,0.86 -40.375,0.25 m 40.375,-0.25 c -4.22,0.84 -26.925,0.16 -40.375,0.25 m 0,0 c -5.84,-0.41 -11.9661165,-3.30322 -10.8661165,-11.57322 M 3.375,410.875 c -6.78,-0.91 -10.9361165,-5.47322 -10.8661165,-11.57322 m 0,0 C -10.311117,319.49178 5.7949513,226.44959 7.8549513,5.7395923 M -7.4911165,399.30178 c -0.52,-83.12 15.2360678,-182.15219 15.3460678,-393.5621877 m 0,0 c 1.28,-9.7 0.5370293,-13.1142136 6.9770297,-13.1642136 M 7.8549513,5.7395923 c 0.4,-7.01 -0.8129707,-11.1142136 6.9770297,-13.1642136"
       stroke="#1e1e1e"
       stroke-width="2"
       fill="none"
       id="path2"
       sodipodi:nodetypes="cccccccccccccccccccccccccccccccc" />
  </g>
</svg>
